<?xml version="1.0" encoding="UTF-8"?><svg id="Laag_1" xmlns="http://www.w3.org/2000/svg" width="250" height="120" viewBox="0 0 643.49 309.09"><defs><style>.cls-1{fill:#00aba0;}.cls-2{fill:#ec671a;}.cls-3{fill:#eea222;}.cls-4{fill:#e7343f;}.cls-5{fill:#82368c;}.cls-6{fill:#af1c63;}.cls-7{fill:#cb5d9f;}.cls-8{fill:#068ec2;}.cls-9{fill:#29235c;}.cls-10{fill:#297d96;}</style></defs><path class="cls-9" d="m446.7,102.72v-23.47c0-5.2-3.59-8.13-9.44-8.13-3.88,0-7.25,1.69-9.66,4.68-1.25,1.43-1.54,2.08-1.54,3.9v23.01h-4.54v-48.1h4.54v19.05c2.93-3.71,7.1-6.24,12.59-6.24,7.1,0,12.52,3.77,12.52,11.38v23.92h-4.47Z"/><path class="cls-9" d="m463.98,85.95c0,.19.07.46.07.65.15,7.28,4.47,13.65,13.62,13.65,3.59,0,7.17-1.5,9.44-3.51l1.98,2.99c-2.93,2.47-7.47,4.1-12.23,4.1-11.93,0-17.35-8.26-17.35-18.07,0-8.58,4.76-18.33,16.03-18.33,8.05,0,14.06,4.81,14.28,13.52-8.2,3.38-16.11,4.94-25.84,5.01Zm11.35-15.28c-7.32,0-10.76,5.59-11.27,12.09,8.27-.13,14.93-1.17,21.38-3.9-.58-5.27-4.69-8.19-10.1-8.19Z"/><path class="cls-9" d="m515.67,72.24c-.81-.39-1.76-.65-2.86-.65-3.59,0-5.56,1.82-7.61,4.36-1.17,1.36-1.32,2.34-1.32,3.83v22.95h-4.54v-28.93c0-1.69-.66-2.54-1.98-2.54-.51,0-1.17.13-1.76.26l-.44-2.99c.95-.26,2.34-.52,3.59-.52,3.15,0,4.83,1.69,4.61,6.18,2.2-3.12,5.42-6.63,10.18-6.63,1.24,0,2.49.26,3.44.58l-1.32,4.1Z"/><path class="cls-9" d="m536.97,103.76c-3.29,0-7.39-.91-9.3-2.99v1.95h-4.39v-48.1h4.54v19.24c2.64-3.58,6.44-6.44,11.79-6.44,8.49,0,14.28,6.96,14.28,17.42s-6,18.92-16.91,18.92Zm1.25-32.63c-4.25,0-6.96,2.28-8.71,4.49-1.39,1.62-1.68,2.27-1.68,4.03v15.8c0,2.86,3,5.07,8.42,5.07,8.35,0,12.96-6.24,12.96-14.69s-3.95-14.69-10.98-14.69Z"/><path class="cls-9" d="m563.4,85.95c0,.19.07.46.07.65.15,7.28,4.47,13.65,13.62,13.65,3.59,0,7.17-1.5,9.44-3.51l1.98,2.99c-2.93,2.47-7.47,4.1-12.23,4.1-11.93,0-17.35-8.26-17.35-18.07,0-8.58,4.76-18.33,16.03-18.33,8.05,0,14.06,4.81,14.28,13.52-8.2,3.38-16.11,4.94-25.84,5.01Zm11.35-15.28c-7.32,0-10.76,5.59-11.27,12.09,8.27-.13,14.93-1.17,21.38-3.9-.59-5.27-4.69-8.19-10.1-8.19Z"/><path class="cls-9" d="m615.09,72.24c-.81-.39-1.76-.65-2.86-.65-3.59,0-5.56,1.82-7.61,4.36-1.17,1.36-1.32,2.34-1.32,3.83v22.95h-4.54v-28.93c0-1.69-.66-2.54-1.98-2.54-.51,0-1.17.13-1.76.26l-.44-2.99c.95-.26,2.34-.52,3.59-.52,3.15,0,4.83,1.69,4.61,6.18,2.2-3.12,5.42-6.63,10.18-6.63,1.24,0,2.49.26,3.44.58l-1.32,4.1Z"/><path class="cls-9" d="m636.83,103.83c-6.96,0-9.66-4.49-9.66-9.17v-22.17h-6.44v-3.38h6.44v-7.73l4.54-1.37v9.1h10.91v3.38h-10.91v21.65c0,3.9,2.2,6.18,6.52,6.18,1.61,0,3.08-.39,4.17-1.04l1.1,3.25c-1.76.78-4.25,1.3-6.66,1.3Z"/><path class="cls-9" d="m438.7,166.07h-4.61l-13.54-34.45h4.91l7.69,20.74c1.61,4.09,3,8.06,3.44,9.49h.15c.51-1.75,1.9-5.66,3.44-9.62l7.69-20.61h4.32l-13.47,34.45Z"/><path class="cls-9" d="m461.61,123.24c-1.9,0-3.15-1.17-3.15-2.79s1.24-2.86,3.15-2.86,3.15,1.17,3.15,2.86-1.17,2.79-3.15,2.79Zm2.85,43.1c-3.51,0-5.2-1.56-5.2-4.68v-30.03h4.54v29.32c0,1.3.44,2.15,1.9,2.15.59,0,1.24-.07,1.76-.26l.44,2.99c-.88.26-2.2.52-3.44.52Z"/><path class="cls-9" d="m483.21,166.98c-3.95,0-7.83-1.24-10.4-3.58l2.12-2.99c2.27,2.08,5.27,3.18,8.64,3.18,3.73,0,8.35-1.69,8.35-6.24,0-3.71-2.56-5.13-6.59-6.63l-3.73-1.43c-4.61-1.75-7.83-4.03-7.83-8.91,0-5.66,5.42-9.82,12.3-9.82,4.1,0,7.32,1.37,9.52,3.45l-2.12,2.92c-2.05-1.95-4.76-2.99-7.61-2.99-5.2,0-7.76,2.79-7.76,5.98s2.34,4.62,5.71,5.85l3.73,1.37c5.27,1.95,8.79,4.29,8.79,9.75,0,6.31-6.15,10.08-13.11,10.08Z"/><path class="cls-9" d="m511.62,166.98c-3.95,0-7.83-1.24-10.4-3.58l2.12-2.99c2.27,2.08,5.27,3.18,8.64,3.18,3.73,0,8.35-1.69,8.35-6.24,0-3.71-2.56-5.13-6.59-6.63l-3.73-1.43c-4.61-1.75-7.83-4.03-7.83-8.91,0-5.66,5.42-9.82,12.3-9.82,4.1,0,7.32,1.37,9.52,3.45l-2.12,2.92c-2.05-1.95-4.76-2.99-7.61-2.99-5.2,0-7.76,2.79-7.76,5.98s2.34,4.62,5.71,5.85l3.73,1.37c5.27,1.95,8.79,4.29,8.79,9.75,0,6.31-6.15,10.08-13.11,10.08Z"/><path class="cls-9" d="m534.9,149.11c0,.19.07.46.07.65.15,7.28,4.47,13.65,13.62,13.65,3.59,0,7.17-1.5,9.44-3.51l1.98,2.99c-2.93,2.47-7.47,4.1-12.23,4.1-11.93,0-17.35-8.26-17.35-18.07,0-8.58,4.76-18.33,16.03-18.33,8.05,0,14.06,4.81,14.28,13.52-8.2,3.38-16.11,4.94-25.84,5.01Zm11.35-15.28c-7.32,0-10.76,5.59-11.27,12.09,8.27-.13,14.93-1.17,21.38-3.9-.59-5.27-4.69-8.19-10.1-8.19Z"/><path class="cls-9" d="m586.58,135.39c-.81-.39-1.76-.65-2.86-.65-3.59,0-5.56,1.82-7.61,4.35-1.17,1.37-1.32,2.34-1.32,3.84v22.95h-4.54v-28.93c0-1.69-.66-2.53-1.98-2.53-.51,0-1.17.13-1.76.26l-.44-2.99c.95-.26,2.34-.52,3.59-.52,3.15,0,4.83,1.69,4.61,6.18,2.2-3.12,5.42-6.63,10.18-6.63,1.24,0,2.49.26,3.44.59l-1.32,4.09Z"/><path class="cls-9" d="m600.56,166.98c-3.95,0-7.83-1.24-10.4-3.58l2.12-2.99c2.27,2.08,5.27,3.18,8.64,3.18,3.73,0,8.35-1.69,8.35-6.24,0-3.71-2.56-5.13-6.59-6.63l-3.73-1.43c-4.61-1.75-7.83-4.03-7.83-8.91,0-5.66,5.42-9.82,12.3-9.82,4.1,0,7.32,1.37,9.52,3.45l-2.12,2.92c-2.05-1.95-4.76-2.99-7.61-2.99-5.2,0-7.76,2.79-7.76,5.98s2.34,4.62,5.71,5.85l3.73,1.37c5.27,1.95,8.79,4.29,8.79,9.75,0,6.31-6.15,10.08-13.11,10.08Z"/><path class="cls-9" d="m438.04,230.76c-11.27,0-16.84-8.19-16.84-17.75,0-8.97,4.76-18.59,16.76-18.59,4.39,0,8.35,1.23,10.91,4.03l-2.34,3.25c-1.61-1.76-4.17-3.58-8.42-3.58-8.64,0-12.23,7.28-12.23,14.82s4.54,14.04,12.52,14.04c3.44,0,6.3-1.3,8.42-3.38l2.12,2.99c-2.49,2.47-6.74,4.16-10.91,4.16Z"/><path class="cls-9" d="m470.33,230.76c-11.86,0-16.77-9.3-16.77-18.46s5.42-18.2,17.13-18.2,16.77,9.04,16.77,18.2-5.34,18.46-17.13,18.46Zm.37-33.28c-9.22,0-12.45,8.12-12.45,14.82s2.78,15.02,12.08,15.02,12.45-8.52,12.45-15.02-2.78-14.82-12.08-14.82Z"/><path class="cls-9" d="m501.3,230.68c-3.51,0-5.2-1.56-5.2-4.68v-43.88h4.54v43.16c0,1.3.51,2.15,1.9,2.15.59,0,1.25-.07,1.76-.26l.44,2.99c-.88.26-2.2.52-3.44.52Z"/><path class="cls-9" d="m519.23,230.68c-3.51,0-5.2-1.56-5.2-4.68v-43.88h4.54v43.16c0,1.3.51,2.15,1.9,2.15.59,0,1.25-.07,1.76-.26l.44,2.99c-.88.26-2.2.52-3.44.52Z"/><path class="cls-9" d="m532.85,212.95c0,.2.07.46.07.65.15,7.28,4.47,13.65,13.62,13.65,3.59,0,7.17-1.5,9.44-3.51l1.98,2.99c-2.93,2.47-7.47,4.1-12.23,4.1-11.93,0-17.35-8.26-17.35-18.07,0-8.58,4.76-18.33,16.03-18.33,8.05,0,14.06,4.81,14.28,13.52-8.2,3.38-16.11,4.94-25.84,5Zm11.35-15.28c-7.32,0-10.76,5.59-11.27,12.09,8.27-.13,14.93-1.17,21.38-3.9-.59-5.27-4.69-8.19-10.1-8.19Z"/><path class="cls-9" d="m594.49,194.49c-.95-.39-1.83-.58-2.85-.58-2.2,0-3.95,1.5-3.73,4.55,1.9,2.02,3,4.75,3,7.74,0,6.31-4.32,11.38-12.59,11.38-2.34,0-4.39-.46-6.08-1.24-1.9,1.62-3.44,3.71-4.1,5.66.8,1.69,2.71,2.54,5.64,2.54h10.91c4.91,0,10.25,1.95,10.25,8.19,0,7.67-8.79,10.99-16.55,10.99s-14.28-3.45-14.28-9.04c0-1.62.51-3.06.95-3.83l3.73.52c-.22.71-.51,1.62-.51,2.54,0,4.29,4.47,6.89,10.54,6.89,4.91,0,11.57-2.15,11.57-7.48,0-4.23-3.37-5.2-6.52-5.2h-10.91c-5.2,0-8.27-2.08-9-4.94,1.17-3.25,3.15-5.98,5.71-8.19-2.56-2.01-4.03-5.07-4.03-8.84,0-6.76,4.69-11.57,12.52-11.57,2.71,0,4.83.65,6.96,1.69.07-3.45,2.78-5.79,6.66-5.79,1.1,0,2.42.2,3.51.58l-.81,3.45Zm-16.33,2.99c-5.78,0-8.2,4.23-8.2,8.58s2.71,8.58,8.35,8.58c7.39,0,8.2-6.31,8.2-8.58,0-4.35-2.56-8.58-8.35-8.58Z"/><path class="cls-9" d="m603.2,212.95c0,.2.07.46.07.65.15,7.28,4.47,13.65,13.62,13.65,3.59,0,7.17-1.5,9.44-3.51l1.98,2.99c-2.93,2.47-7.47,4.1-12.23,4.1-11.93,0-17.35-8.26-17.35-18.07,0-8.58,4.76-18.33,16.03-18.33,8.05,0,14.06,4.81,14.28,13.52-8.2,3.38-16.11,4.94-25.84,5Zm11.35-15.28c-7.32,0-10.76,5.59-11.27,12.09,8.27-.13,14.93-1.17,21.38-3.9-.59-5.27-4.69-8.19-10.1-8.19Z"/><path class="cls-9" d="m10.26,299.98c-4.35,0-7.87-1.1-10.26-2.16l2.23-5.61c2.02,1.1,5.39,2.12,8.44,2.12,3.42,0,6.01-1.2,6.01-3.91,0-2.39-2.59-3.4-4.71-4.19l-2.69-1.01c-4.87-1.84-8.7-4.19-8.7-9.52,0-5.61,5.18-9.84,13.21-9.84,3.26,0,6.99.51,10,1.84l-2.38,5.47c-2.12-1.1-4.77-1.79-7.61-1.79-4.25,0-5.34,2.16-5.34,3.59,0,2.25,2.54,3.22,4.61,4.05l2.69,1.06c4.71,1.84,8.86,4.14,8.86,9.34,0,7.73-6.84,10.58-14.35,10.58Z"/><path class="cls-9" d="m48.14,299.66c-2.59,0-3.89-1.43-4.3-3.36-2.28,2.39-4.4,3.59-8.18,3.59-4.87,0-8.19-3.13-8.19-7.32,0-6.67,7.87-7.96,13.99-7.96,1.14,0,1.81-.05,1.81-.87v-1.61c0-1.75-1.24-3.4-5.08-3.4-3.21,0-5.65,1.33-6.84,2.25l-2.54-4.6c3.06-1.75,6.42-2.53,11.19-2.53,3.89,0,10.15,1.24,10.15,8.33v11.32c0,.88.1,1.61.98,1.61.31,0,.88-.14,1.19-.23l.41,4.19c-1.09.23-2.9.6-4.61.6Zm-4.92-11.04c-.78-.05-1.55-.05-2.18-.05-2.54,0-6.37.55-6.37,3.5,0,1.79,1.45,3.08,3.47,3.08,1.61,0,2.95-.46,3.89-1.33.83-.78,1.19-1.7,1.19-2.9v-2.3Z"/><path class="cls-9" d="m87.66,299.2v-15.55c0-2.48-.98-4.19-3.73-4.19-1.35,0-2.43.51-3.11,1.15-1.24,1.2-1.4,1.93-1.4,3.5v15.09h-7.25v-15.55c0-2.48-.98-4.19-3.73-4.19-1.35,0-2.49.51-3.16,1.15-1.24,1.2-1.35,1.84-1.35,3.5v15.09h-7.25v-24.57h6.73v3.27c1.86-2.48,3.99-4.05,7.67-4.05s6.11,1.52,7.46,4.42c1.92-2.58,4.3-4.42,8.03-4.42,5.96,0,8.34,3.68,8.34,8.46v16.88h-7.25Z"/><path class="cls-9" d="m106.42,288.48c0,.23.05.32.05.55.41,3.82,3.83,5.84,8.19,5.84,2.49,0,5.13-.92,6.58-1.61l1.92,4.78c-2.12.87-5.8,1.93-9.84,1.93-8.65,0-14.09-5.25-14.09-12.88,0-6.49,4.04-13.25,12.85-13.25,8.19,0,11.6,4.92,11.55,11.18-4.82,2.07-10.98,3.4-17.2,3.45Zm5.39-10.12c-3.89,0-5.54,2.71-5.54,5.71,3.94-.09,7.46-.51,10.57-1.93-.16-1.89-1.81-3.77-5.02-3.77Z"/><path class="cls-9" d="m145.33,299.2v-15.55c0-2.48-.98-4.19-4.14-4.19-1.45,0-2.75.55-3.52,1.2-1.4,1.2-1.5,1.79-1.5,3.45v15.09h-7.25v-24.57h6.73v3.5c1.97-2.62,4.56-4.28,8.34-4.28,6.16,0,8.6,3.68,8.6,8.46v16.88h-7.25Z"/><path class="cls-9" d="m209,299.2v-17.07c0-4.19-2.95-6.39-7.3-6.39-3.16,0-5.85,1.43-7.82,4.19-.67.97-.83,1.33-.83,2.48v16.79h-1.71v-17.07c0-4.19-3-6.39-7.36-6.39-3.16,0-5.8,1.43-7.77,4.19-.67.97-.88,1.33-.88,2.48v16.79h-1.71v-24.11h1.61v4.14c2.07-2.81,5.08-4.83,9.07-4.83,3.73,0,7.2,1.47,8.34,5.15,2.12-2.76,4.77-5.15,9.32-5.15s8.75,2.21,8.75,7.82v16.98h-1.71Z"/><path class="cls-9" d="m228.38,300.07c-8.19,0-11.45-6.76-11.45-13.02s3.63-12.79,11.66-12.79,11.45,6.49,11.45,12.74-3.57,13.07-11.66,13.07Zm.21-24.52c-7.2,0-9.89,6.26-9.89,11.5s2.38,11.69,9.69,11.69,9.89-6.67,9.89-11.73-2.38-11.46-9.69-11.46Z"/><path class="cls-9" d="m257.71,276.2c-.62-.28-1.14-.37-1.87-.37-2.9,0-4.51,1.66-6.22,3.96-.78,1.06-.93,1.61-.93,2.58v16.84h-1.71v-21.21c0-1.29-.57-1.84-1.55-1.84-.41,0-.83.05-1.24.18l-.26-1.24c.52-.18,1.14-.28,1.71-.28,1.86,0,3.11.87,2.9,4.51,1.55-2.16,3.99-4.92,7.36-4.92.78,0,1.66.14,2.33.41l-.52,1.38Z"/><path class="cls-9" d="m281.28,273.81c-.67-.32-1.35-.46-2.07-.46-1.71,0-3,1.2-2.75,3.63,1.4,1.47,2.12,3.45,2.12,5.61,0,4.46-2.8,7.96-8.19,7.96-1.76,0-3.26-.41-4.51-1.1-1.55,1.33-2.85,3.08-3.42,4.69.62,1.38,2.07,2.12,4.3,2.12h7.72c3.06,0,6.99,1.01,6.99,5.47,0,5.11-5.85,7.36-10.98,7.36s-9.58-2.62-9.58-6.58c0-1.15.31-2.16.52-2.71l1.55.37c-.21.55-.41,1.29-.41,2.02,0,3.5,3.47,5.71,8.34,5.71,3.06,0,8.81-1.38,8.81-6.03,0-3.5-2.8-4.19-5.23-4.19h-7.72c-3.37,0-5.44-1.52-5.91-3.5.83-2.12,2.18-3.91,3.94-5.43-1.76-1.47-2.75-3.63-2.75-6.21,0-4.88,3.21-8.05,8.19-8.05,1.97,0,3.42.51,4.87,1.29-.05-2.3,1.71-3.82,4.25-3.82.78,0,1.71.18,2.44.46l-.52,1.38Zm-11.03,1.98c-4.51,0-6.48,3.08-6.48,6.67s2.28,6.81,6.63,6.81c6.06,0,6.48-5.24,6.48-6.76,0-3.59-2.18-6.72-6.63-6.72Z"/><path class="cls-9" d="m286.31,286.82v.46c0,5.7,2.95,11.27,10.21,11.27,2.59,0,5.02-1.1,6.73-2.85l1.19.97c-2.02,2.12-5.08,3.31-8.19,3.31-8.39,0-11.66-6.12-11.66-12.74,0-5.89,3.11-12.84,10.83-12.84,4.77,0,9.32,2.76,9.58,8.83-6.17,2.53-11.6,3.54-18.7,3.59Zm8.96-11.09c-5.65,0-8.34,4.51-8.86,9.75,6.58-.05,11.71-.92,16.78-3.13-.47-4.51-3.83-6.62-7.93-6.62Z"/><path class="cls-9" d="m329.46,299.2v-17.07c0-4.19-3.06-6.39-7.56-6.39-3.26,0-6.06,1.43-8.08,4.19-.73.97-.93,1.33-.93,2.48v16.79h-1.71v-24.11h1.61v4.14c2.12-2.81,5.28-4.83,9.38-4.83,4.66,0,9.01,2.21,9.01,7.82v16.98h-1.71Z"/><path class="cls-9" d="m387.64,299.2v-17.07c0-4.19-2.95-6.39-7.3-6.39-3.16,0-5.85,1.43-7.82,4.19-.67.97-.83,1.33-.83,2.48v16.79h-1.71v-17.07c0-4.19-3-6.39-7.36-6.39-3.16,0-5.8,1.43-7.77,4.19-.67.97-.88,1.33-.88,2.48v16.79h-1.71v-24.11h1.61v4.14c2.07-2.81,5.08-4.83,9.07-4.83,3.73,0,7.2,1.47,8.34,5.15,2.12-2.76,4.77-5.15,9.33-5.15s8.75,2.21,8.75,7.82v16.98h-1.71Z"/><path class="cls-9" d="m414.33,299.34c-2.95,0-3.06-1.98-2.95-4-1.92,2.71-5.02,4.55-8.7,4.55-4.04,0-7.46-2.48-7.46-6.03,0-6.49,6.99-7.59,12.9-7.59,3.21,0,3.21-.05,3.21-.55v-3.36c0-3.77-2.18-6.58-6.68-6.58-2.95,0-5.13.87-6.99,2.9l-1.24-.97c2.18-2.3,4.92-3.31,8.29-3.31,5.54,0,8.34,3.22,8.34,7.96v14.17c0,.92.41,1.47,1.5,1.47.42,0,.83-.05,1.24-.18l.26,1.24c-.52.18-1.14.28-1.71.28Zm-3-11.64c-1.09,0-2.12-.05-3.21-.05-4.87,0-11.19.55-11.19,6.03,0,2.71,2.44,4.83,6.06,4.83,3.11,0,5.54-1.43,7.3-3.63.73-.92,1.04-1.33,1.04-2.44v-4.74Z"/><path class="cls-9" d="m429.87,286.32c1.4,2.02,4.04,5.57,5.7,7.78,2.38,3.13,3,4.05,4.35,4.05.31,0,.62-.05.93-.18l.31,1.24c-.47.18-.98.28-1.45.28-1.5,0-2.59-.87-4.3-3.17-2.02-2.71-4.77-6.58-6.73-9.2-1.55,1.01-3.26,1.89-5.08,2.62v9.48h-1.71v-34.04h1.71v23.33c6.37-2.81,10.52-7.18,12.74-13.39h1.76c-1.61,4.65-4.4,8.37-8.24,11.22Z"/><path class="cls-9" d="m444.95,286.82v.46c0,5.7,2.95,11.27,10.21,11.27,2.59,0,5.03-1.1,6.73-2.85l1.19.97c-2.02,2.12-5.08,3.31-8.18,3.31-8.39,0-11.66-6.12-11.66-12.74,0-5.89,3.11-12.84,10.83-12.84,4.77,0,9.33,2.76,9.58,8.83-6.17,2.53-11.6,3.54-18.7,3.59Zm8.96-11.09c-5.65,0-8.34,4.51-8.86,9.75,6.58-.05,11.71-.92,16.78-3.13-.47-4.51-3.83-6.62-7.93-6.62Z"/><path class="cls-9" d="m488.11,299.2v-17.07c0-4.19-3.06-6.39-7.56-6.39-3.26,0-6.06,1.43-8.08,4.19-.73.97-.93,1.33-.93,2.48v16.79h-1.71v-24.11h1.61v4.14c2.12-2.81,5.28-4.83,9.38-4.83,4.66,0,9.01,2.21,9.01,7.82v16.98h-1.71Z"/><path class="cls-9" d="m500.28,299.48c-.93,0-1.61-.6-1.61-1.43s.62-1.38,1.55-1.38,1.61.55,1.61,1.38-.62,1.43-1.55,1.43Z"/><path class="cls-5" d="m66.07,67.39c-12.89,0-23.39,1.84-31.9,4.58v37.76c4.18-3.26,13.51-8.17,31.9-8.17,12.04,0,16.39,4.56,18.61,7.98,3.08,4.74,4.77,12.05,4.77,20.58v83.55c0,9.44,7.65,17.09,17.09,17.09s17.09-7.65,17.09-17.09v-83.55c0-38.7-22.06-62.74-57.56-62.74"/><path class="cls-7" d="m1.15,96.92c.16-.41.32-.81.5-1.21,0,0,.18-.44.36-.74.68-1.32,1.54-2.54,2.53-3.63,1.72-2.19,4.27-4.96,7.8-7.83,5.05-4.1,12.14-8.41,21.84-11.55V17.09C34.18,7.65,26.53,0,17.09,0S0,7.65,0,17.09v85.77s0-.08,0-.12c.02-2.05.45-4,1.14-5.82Z"/><path class="cls-7" d="m31.95,112.49c-3.42,4.66-8.41,7.53-14.61,7.56-.02,0-.05,0-.07,0-9.49,0-17.27-7.7-17.27-17.19v110.81c0,9.44,7.65,17.09,17.09,17.09s17.09-7.65,17.09-17.09v-103.94c-1.04.81-1.76,2.12-2.23,2.76Z"/><path class="cls-6" d="m4.53,91.34c-.99,1.09-1.84,2.31-2.53,3.63-.18.3-.36.74-.36.74C.65,97.89,0,100.31,0,102.86,0,112.35,7.78,120.05,17.27,120.05c6.23,0,11.25-2.88,14.68-7.56.47-.64,1.19-1.95,2.23-2.76v-37.76c-16.49,5.32-25.45,14.04-29.65,19.37"/><path class="cls-1" d="m175.55,207.84l16.06-44.25-30.84-84.95c-3.22-8.87-13.02-13.45-21.89-10.23h0c-8.87,3.22-13.45,13.02-10.23,21.89l46.85,129.04c-1.27-3.6-1.35-7.64.05-11.51Z"/><path class="cls-8" d="m207.73,219.34l46.85-129.04c3.22-8.87-1.36-18.67-10.23-21.89h0c-8.87-3.22-18.67,1.36-21.89,10.23l-30.84,84.95,16.06,44.25c1.4,3.87,1.32,7.91.05,11.51Z"/><path class="cls-10" d="m207.68,207.84l-16.06-44.25-16.06,44.25c-1.4,3.87-1.32,7.91-.05,11.51l.04.1c.04.11.09.21.13.32.16.43.34.85.53,1.26.1.2.21.4.32.6.15.29.3.58.47.86.14.23.29.45.44.67.16.24.32.48.49.71.16.21.33.42.5.63.18.22.37.45.56.67.17.18.34.36.52.53.22.22.44.45.67.66.16.15.34.29.51.43.26.22.52.43.78.63.17.13.35.24.52.36.28.19.56.39.86.56.2.12.42.23.62.34.28.15.55.31.84.44.29.14.59.26.9.38.22.09.43.19.65.27.45.16.91.3,1.36.42.09.02.17.06.26.08.55.14,1.1.25,1.64.33.24.04.49.05.73.07.31.03.63.08.94.09.28.01.56,0,.84,0,.28,0,.56.01.84,0,.31-.02.62-.06.94-.09.24-.03.49-.04.73-.07.55-.08,1.1-.19,1.64-.33.09-.02.17-.05.26-.08.46-.12.91-.26,1.36-.42.22-.08.43-.18.65-.27.3-.12.61-.24.9-.38.28-.13.56-.29.83-.44.21-.11.42-.22.63-.34.29-.17.57-.37.86-.56.18-.12.36-.23.53-.36.27-.2.53-.42.78-.63.17-.14.35-.28.51-.43.23-.21.45-.43.67-.66.17-.18.35-.35.52-.53.2-.21.38-.44.56-.67.17-.21.34-.41.5-.63.17-.23.33-.47.49-.71.15-.22.3-.44.44-.67.17-.28.32-.57.47-.87.1-.2.22-.39.31-.6.19-.41.37-.83.53-1.26.04-.11.09-.21.13-.32l.04-.1c1.27-3.6,1.35-7.64-.05-11.51Z"/><path class="cls-4" d="m384.6,189.28c-5.93-7.79-17.05-9.3-24.84-3.38-8.09,6.15-17.75,9.4-27.95,9.4-25.49,0-46.23-20.74-46.23-46.23,0,.56-.03,1.07-.08,1.55-.04.51-.12,1.01-.2,1.51-.01.07-.02.13-.03.2-.09.46-.2.91-.32,1.36-.03.1-.05.2-.08.3-.12.42-.26.82-.41,1.23-.05.12-.09.25-.14.37-.15.38-.32.75-.49,1.11-.07.14-.13.28-.2.41-.18.34-.36.68-.56,1.01-.09.15-.18.3-.27.44-.2.31-.4.61-.62.9-.11.16-.23.31-.34.46-.21.27-.43.54-.66.8-.14.16-.28.31-.42.47-.23.24-.46.48-.7.7-.16.16-.33.31-.51.46-.24.21-.48.41-.72.61-.19.15-.39.3-.59.44-.24.18-.49.35-.74.52-.22.14-.45.28-.67.41-.25.15-.49.29-.75.43-.25.13-.5.25-.76.37-.25.12-.49.23-.75.34-.28.11-.57.21-.85.31-.24.09-.48.18-.73.25-.31.1-.64.17-.96.25-.23.06-.46.12-.7.17-.37.07-.75.12-1.13.17-.2.03-.39.07-.59.08-.58.06-1.17.09-1.77.09s-1.18-.03-1.77-.09c-.2-.02-.39-.06-.59-.09-.38-.05-.75-.1-1.12-.17-.24-.05-.46-.11-.7-.17-.32-.08-.64-.15-.96-.25-.25-.08-.49-.17-.73-.25-.29-.1-.57-.2-.85-.31-.25-.1-.5-.22-.75-.34-.25-.12-.51-.23-.76-.37-.26-.13-.5-.28-.75-.43-.23-.13-.45-.26-.67-.41-.25-.17-.5-.34-.74-.52-.2-.14-.4-.29-.59-.44-.25-.2-.49-.4-.73-.61-.17-.15-.34-.3-.5-.46-.24-.23-.47-.47-.7-.71-.14-.15-.28-.31-.42-.46-.23-.26-.45-.53-.67-.81-.12-.15-.23-.3-.34-.46-.22-.3-.42-.6-.62-.91-.09-.14-.18-.29-.27-.44-.2-.33-.39-.67-.56-1.01-.07-.13-.13-.27-.2-.41-.18-.37-.34-.74-.49-1.12-.05-.12-.09-.24-.13-.36-.15-.41-.29-.81-.41-1.23-.03-.1-.05-.2-.08-.3-.12-.45-.23-.9-.32-1.36-.01-.06-.02-.13-.03-.2-.09-.5-.16-1-.2-1.52-.05-.48-.08-.99-.08-1.55,0,45.04,36.64,81.69,81.69,81.69,18.02,0,35.11-5.75,49.42-16.64,7.79-5.93,9.3-17.05,3.38-24.84Z"/><path class="cls-3" d="m381.23,84.03c-14.31-10.89-31.4-16.64-49.42-16.64-45.04,0-81.69,36.64-81.69,81.69,0-.55.03-1.07.08-1.55.09-1.06.28-2.08.55-3.07.03-.1.05-.2.08-.29h0c.12-.42.26-.83.41-1.24,0,0,0,0,0,0,.02-.07.05-.13.07-.2.17-.44.35-.86.55-1.28h0c.07-.14.13-.27.2-.41h0c.42-.83.91-1.61,1.45-2.36,0,0,0,0,0,0,.11-.15.22-.31.34-.45,0,0,0,0,0,0,.21-.28.44-.54.67-.81h0c.14-.16.28-.31.42-.46h0c.23-.24.46-.48.7-.71h0s.06-.05.09-.08c.37-.34.75-.68,1.14-.99,0,0,0,0,0,0,.19-.15.39-.3.59-.44.24-.18.49-.35.74-.52,0,0,0,0,0,0,.18-.11.36-.22.54-.33.29-.18.58-.35.89-.51h0c.07-.04.14-.07.21-.1.43-.22.86-.42,1.3-.61,0,0,0,0,0,0,.15-.06.3-.11.46-.17.9-.34,1.82-.62,2.78-.81,0,0,0,0,0,0,.24-.05.49-.08.74-.11.32-.05.64-.11.97-.14h0c.58-.06,1.17-.09,1.77-.09,1.09,0,2.16.11,3.19.3.1.02.19.03.29.04h0c.82.16,1.61.4,2.38.67,0,0,0,0,0,0,.17.06.35.13.52.19.47.18.92.38,1.37.6.16.07.32.15.47.23h0c.25.13.5.28.75.43,0,0,0,0,0,0,.23.13.45.27.67.41h0c1.19.78,2.28,1.7,3.26,2.73h0c.14.15.28.31.42.46,0,0,0,0,0,0,.31.35.59.71.87,1.08.04.06.09.12.13.18,0,0,0,0,0,0,.21.3.42.6.62.91,0,0,0,0,0,0,.09.14.18.29.27.44.48.81.9,1.65,1.25,2.54,0,0,0,0,0,0,.05.12.09.25.13.37,0,0,0,0,0,0,.54,1.45.9,2.99,1.04,4.6,0,0,0,0,0,0,.05.48.08.99.08,1.55,0-25.49,20.74-46.23,46.23-46.23,10.2,0,19.87,3.25,27.95,9.4,7.79,5.93,18.92,4.42,24.84-3.38,5.93-7.79,4.42-18.91-3.38-24.84Z"/><circle class="cls-2" cx="267.85" cy="149.07" r="17.73"/></svg>